<svg xmlns="http://www.w3.org/2000/svg" version="1.1" xmlnsXlink="http://www.w3.org/1999/xlink" xmlnsSvgjs="http://svgjs.dev/svgjs" width="2000" height="287" viewBox="0 0 2000 287"><g transform="matrix(1,0,0,1,-1.2121212121212466,0.6500366800555923)"><svg viewBox="0 0 396 57" data-background-color="#35185a" preserveAspectRatio="xMidYMid meet" height="287" width="2000" xmlns="http://www.w3.org/2000/svg" xmlnsXlink="http://www.w3.org/1999/xlink"><g id="tight-bounds" transform="matrix(1,0,0,1,0.2400000000000091,-0.1291013615441443)"><svg viewBox="0 0 395.52 57.258202723088296" height="57.258202723088296" width="395.52"><g><svg viewBox="0 0 487.5534410028759 70.58159830926866" height="57.258202723088296" width="395.52"><g><rect width="3.4403564834205946" height="68.43657144314035" x="79.58691571468944" y="1.0725134330641524" fill="#ffffff" opacity="1" stroke-width="0" stroke="transparent" fill-opacity="1" class="rect-in-0" data-fill-palette-color="primary" rx="1%" id="in-0" data-palette-color="#ffffff"></rect></g><g transform="matrix(1,0,0,1,92.03344100287599,1.242753660534646)"><svg viewBox="0 0 395.5199999999999 68.09609098819936" height="68.09609098819936" width="395.5199999999999"><g><svg viewBox="0 0 395.5199999999999 68.09609098819936" height="68.09609098819936" width="395.5199999999999"><g><svg viewBox="0 0 395.5199999999999 38.149446808510625" height="38.149446808510625" width="395.5199999999999"><g transform="matrix(1,0,0,1,0,0)"><svg width="395.5199999999999" viewBox="0.3 -33.5 351.38 34" height="38.149446808510625" data-palette-color="#ffffff"><g class="undefined-text-0" data-fill-palette-color="primary" id="text-0"><path d="M16.75-33.5L16.75-33.5Q21.45-33.5 25.1-32.23 28.75-30.95 31.5-28.35L31.5-28.35 27.05-21.8Q24.8-23.7 22.28-24.78 19.75-25.85 16.7-25.85L16.7-25.85Q15.15-25.85 14.2-25.55 13.25-25.25 12.83-24.73 12.4-24.2 12.4-23.55L12.4-23.55Q12.4-22.75 13.38-22.25 14.35-21.75 16.1-21.35L16.1-21.35 21.1-20.2Q26.1-19.05 28.55-16.82 31-14.6 31-10.75L31-10.75Q31-7 29.13-4.5 27.25-2 24-0.75 20.75 0.5 16.65 0.5L16.65 0.5Q13.4 0.5 10.33-0.15 7.25-0.8 4.7-2.02 2.15-3.25 0.3-4.95L0.3-4.95 4.7-11.7Q6.05-10.4 8-9.38 9.95-8.35 12.15-7.75 14.35-7.15 16.4-7.15L16.4-7.15Q17.85-7.15 18.78-7.43 19.7-7.7 20.1-8.2 20.5-8.7 20.5-9.4L20.5-9.4Q20.5-10.25 19.85-10.78 19.2-11.3 17.4-11.7L17.4-11.7 11.9-12.95Q9.2-13.55 6.9-14.6 4.6-15.65 3.23-17.53 1.85-19.4 1.85-22.45L1.85-22.45Q1.85-25.7 3.6-28.2 5.35-30.7 8.7-32.1 12.05-33.5 16.75-33.5ZM35.4-33L51.8-33Q56.05-33 59.02-31.68 62-30.35 63.57-27.83 65.15-25.3 65.15-21.65L65.15-21.65Q65.15-18 63.57-15.48 62-12.95 59.02-11.63 56.05-10.3 51.8-10.3L51.8-10.3 45.6-10.3 45.6 0 35.4 0 35.4-33ZM45.6-17.7L50.15-17.7Q52.4-17.7 53.65-18.68 54.9-19.65 54.9-21.65L54.9-21.65Q54.9-23.65 53.65-24.63 52.4-25.6 50.15-25.6L50.15-25.6 45.6-25.6 45.6-17.7ZM76.8 0L66.59 0 77.7-33 89.95-33 101.09 0 90.59 0 85.2-20 83.8-25.4 83.7-25.4 82.34-20.05 76.8 0ZM93.2-6.85L74.55-6.85 74.55-13.45 93.2-13.45 93.2-6.85ZM125.04-12.25L134.14-9.8Q133.24-6.15 131.12-3.85 128.99-1.55 125.97-0.53 122.94 0.5 119.29 0.5L119.29 0.5Q114.19 0.5 110.47-1.53 106.74-3.55 104.74-7.35 102.74-11.15 102.74-16.5L102.74-16.5Q102.74-21.85 104.74-25.65 106.74-29.45 110.47-31.48 114.19-33.5 119.24-33.5L119.24-33.5Q122.84-33.5 125.87-32.5 128.89-31.5 130.99-29.4 133.09-27.3 133.84-23.95L133.84-23.95 124.99-20.4Q124.44-23.6 123.07-24.65 121.69-25.7 119.54-25.7L119.54-25.7Q117.54-25.7 116.12-24.68 114.69-23.65 113.97-21.63 113.24-19.6 113.24-16.5L113.24-16.5Q113.24-13.45 113.92-11.4 114.59-9.35 116.02-8.33 117.44-7.3 119.74-7.3L119.74-7.3Q121.79-7.3 123.19-8.5 124.59-9.7 125.04-12.25L125.04-12.25ZM165.19 0L137.94 0 137.94-33 164.54-33 164.54-25.35 148.14-25.35 148.14-20 161.24-20 161.24-12.9 148.14-12.9 148.14-7.65 165.19-7.65 165.19 0Z" fill="#ffffff" data-fill-palette-color="primary"></path><path d="M184.44-33L194.64-33 194.64-13.15Q194.64-6.7 190.84-3.1 187.04 0.5 179.94 0.5L179.94 0.5Q174.74 0.5 171.57-1.35 168.39-3.2 167.24-6.45 166.09-9.7 166.74-13.85L166.74-13.85 176.79-15.55Q176.19-10.95 177.12-9.13 178.04-7.3 180.39-7.3L180.39-7.3Q182.54-7.3 183.49-8.93 184.44-10.55 184.44-14.05L184.44-14.05 184.44-33ZM219.99-33L230.19-33 230.19-13.85Q230.19-6.65 226.34-3.08 222.49 0.5 214.84 0.5L214.84 0.5Q207.14 0.5 203.29-3.08 199.44-6.65 199.44-13.85L199.44-13.85 199.44-33 209.69-33 209.69-13.3Q209.69-10.3 210.99-8.8 212.29-7.3 214.84-7.3L214.84-7.3Q217.39-7.3 218.69-8.8 219.99-10.3 219.99-13.3L219.99-13.3 219.99-33ZM257.79-33L266.74-33 266.74 0 255.54 0 246.54-16.35 244.44-20.8 244.34-20.8 244.54-14.3 244.54 0 235.64 0 235.64-33 246.79-33 255.79-16.65 257.94-12.2 257.99-12.2 257.79-18.7 257.79-33ZM293.13-33L304.18-33 288.33-13.15 287.83-15.1 280.28-5.35 278.08-12.9 293.13-33ZM272.83-33L283.03-33 283.03 0 272.83 0 272.83-33ZM284.43-16.9L291.98-22.55 304.98 0 293.43 0 284.43-16.9ZM308.13-33L318.33-33 318.33 0 308.13 0 308.13-33ZM351.68 0L324.43 0 324.43-33 351.03-33 351.03-25.35 334.63-25.35 334.63-20 347.73-20 347.73-12.9 334.63-12.9 334.63-7.65 351.68-7.65 351.68 0Z" fill="#ffffff" data-fill-palette-color="primary"></path></g></svg></g></svg></g><g transform="matrix(1,0,0,1,0,47.15561561327658)"><svg viewBox="0 0 232.20979199999994 20.940475374922787" height="20.940475374922787" width="232.20979199999994"><g transform="matrix(1,0,0,1,0,0)"><svg width="232.20979199999994" viewBox="5.65 -42.95 485.65000000000003 43.800000000000004" height="20.940475374922787" data-palette-color="#ffffff"><path d="M27.8 0L17.6-16.6 9.5-16.6 9.5 0 5.65 0 5.65-37.9 18.45-37.9Q30.3-37.9 30.3-27.2L30.3-27.2Q30.3-22.8 28.18-20.18 26.05-17.55 21.75-16.85L21.75-16.85 32.2 0 27.8 0ZM9.5-34.45L9.5-20.05 18.45-20.05Q26.35-20.05 26.35-27.35L26.35-27.35Q26.35-31.05 24.38-32.75 22.4-34.45 18.45-34.45L18.45-34.45 9.5-34.45ZM41.85-13.95L41.85-13.85Q41.85-8.8 44.15-5.7 46.45-2.6 51.5-2.6L51.5-2.6Q55.15-2.6 59.6-4.65L59.6-4.65 60.8-1.45Q56.4 0.85 51.3 0.85L51.3 0.85Q44.95 0.85 41.47-3.15 38-7.15 38-13.8L38-13.8Q38-18.4 39.6-21.65 41.2-24.9 43.97-26.58 46.75-28.25 50.2-28.25L50.2-28.25Q55.45-28.25 58.45-24.95 61.45-21.65 61.5-15.4L61.5-15.4 61.5-13.95 41.85-13.95ZM50.2-24.8Q46.95-24.8 44.82-22.93 42.7-21.05 42.1-17.3L42.1-17.3 57.6-17.3Q57.3-21.15 55.5-22.98 53.7-24.8 50.2-24.8L50.2-24.8ZM76.45-27.45Q80.55-27.45 82.67-25.98 84.8-24.5 85.52-22.03 86.25-19.55 86.25-15.8L86.25-15.8 86.25 0 82.55 0 82.55-2.85Q80.55-1 78.62-0.18 76.7 0.65 74.5 0.65L74.5 0.65Q72.05 0.65 70-0.48 67.95-1.6 66.72-3.7 65.5-5.8 65.5-8.7L65.5-8.7Q65.5-13.2 68.3-15.68 71.09-18.15 75.8-18.15L75.8-18.15Q77.5-18.15 79.27-17.73 81.05-17.3 82.55-16.5L82.55-16.5Q82.5-19.2 82-20.8 81.5-22.4 80.05-23.28 78.59-24.15 75.7-24.15L75.7-24.15 72.5-24.15 72.5-27.45 76.45-27.45ZM74.8-2.7Q78.75-2.7 82.55-6.15L82.55-6.15 82.55-13.35Q79.7-14.85 76.15-14.85L76.15-14.85Q73.25-14.85 71.27-13.43 69.3-12 69.3-8.7L69.3-8.7Q69.3-5.55 70.97-4.13 72.64-2.7 74.8-2.7L74.8-2.7ZM105.74 0.85Q99.39 0.8 95.99-3.15 92.59-7.1 92.59-13.8L92.59-13.8Q92.59-20.45 95.99-24.35 99.39-28.25 105.74-28.25L105.74-28.25Q107.89-28.25 109.49-27.95 111.09-27.65 112.89-26.9L112.89-26.9 112.89-23.2Q111.04-24.05 109.42-24.4 107.79-24.75 105.89-24.75L105.89-24.75Q100.94-24.7 98.69-21.75 96.44-18.8 96.44-13.85L96.44-13.85Q96.44-8.8 98.67-5.78 100.89-2.75 105.84-2.7L105.84-2.7Q109.54-2.7 113.79-4.75L113.79-4.75 115.04-1.5Q110.59 0.85 105.74 0.85L105.74 0.85ZM133.79-28.05Q138.79-28.05 141.17-25.43 143.54-22.8 143.54-16.6L143.54-16.6 143.54 0 139.84 0 139.84-16.6Q139.84-20.95 138.44-22.75 137.04-24.55 133.49-24.55L133.49-24.55Q129.29-24.55 125.24-20.9L125.24-20.9 125.24 0 121.54 0 121.54-42.3 125.24-42.3 125.24-24.35Q127.19-26.1 129.39-27.08 131.59-28.05 133.79-28.05L133.79-28.05ZM171.19-39.4Q169.39-39.4 168.74-38.68 168.09-37.95 168.09-35.9L168.09-35.9 168.09-27.45 173.59-27.45 173.59-23.95 168.09-23.95 168.09 0 164.39 0 164.39-23.95 160.99-23.95 160.99-27.45 164.39-27.45 164.39-36.65Q164.39-40.15 165.91-41.55 167.44-42.95 170.99-42.95L170.99-42.95Q172.19-42.95 173.59-42.65L173.59-42.65 173.59-39.2Q172.59-39.4 171.19-39.4L171.19-39.4ZM191.18 0.85Q186.88 0.85 183.91-1.07 180.93-3 179.43-6.3 177.93-9.6 177.93-13.75L177.93-13.75Q177.93-17.85 179.43-21.15 180.93-24.45 183.91-26.35 186.88-28.25 191.18-28.25L191.18-28.25Q195.48-28.25 198.46-26.35 201.43-24.45 202.93-21.15 204.43-17.85 204.43-13.75L204.43-13.75Q204.43-9.6 202.93-6.3 201.43-3 198.46-1.07 195.48 0.85 191.18 0.85L191.18 0.85ZM191.18-2.65Q195.63-2.65 198.11-5.75 200.58-8.85 200.58-13.75L200.58-13.75Q200.58-18.6 198.11-21.7 195.63-24.8 191.18-24.8L191.18-24.8Q186.73-24.8 184.26-21.7 181.78-18.6 181.78-13.75L181.78-13.75Q181.78-8.85 184.26-5.75 186.73-2.65 191.18-2.65L191.18-2.65ZM224.48-28.05L225.63-28.05 225.63-24.55 224.48-24.55Q220.08-24.55 215.93-20.85L215.93-20.85 215.93 0 212.23 0 212.23-27.45 215.93-27.45 215.93-24.25Q217.88-26.05 220.08-27.05 222.28-28.05 224.48-28.05L224.48-28.05ZM253.68-23.75L247.28-23.75 247.28-6.45Q247.28-4.4 247.93-3.65 248.58-2.9 250.38-2.9L250.38-2.9Q251.88-2.9 253.63-3.3L253.63-3.3 253.63 0.2Q251.78 0.65 249.98 0.65L249.98 0.65Q247.48 0.65 246.1 0 244.73-0.65 244.15-2.05 243.58-3.45 243.58-5.9L243.58-5.9 243.58-23.75 240.08-23.75 240.08-27.3 243.58-27.3 243.58-36.8 247.28-36.8 247.28-27.3 253.68-27.3 253.68-23.75ZM272.92-28.05Q277.92-28.05 280.3-25.43 282.67-22.8 282.67-16.6L282.67-16.6 282.67 0 278.97 0 278.97-16.6Q278.97-20.95 277.57-22.75 276.17-24.55 272.62-24.55L272.62-24.55Q268.42-24.55 264.37-20.9L264.37-20.9 264.37 0 260.67 0 260.67-42.3 264.37-42.3 264.37-24.35Q266.32-26.1 268.52-27.08 270.72-28.05 272.92-28.05L272.92-28.05ZM294.12-13.95L294.12-13.85Q294.12-8.8 296.42-5.7 298.72-2.6 303.77-2.6L303.77-2.6Q307.42-2.6 311.87-4.65L311.87-4.65 313.07-1.45Q308.67 0.85 303.57 0.85L303.57 0.85Q297.22 0.85 293.75-3.15 290.27-7.15 290.27-13.8L290.27-13.8Q290.27-18.4 291.87-21.65 293.47-24.9 296.25-26.58 299.02-28.25 302.47-28.25L302.47-28.25Q307.72-28.25 310.72-24.95 313.72-21.65 313.77-15.4L313.77-15.4 313.77-13.95 294.12-13.95ZM302.47-24.8Q299.22-24.8 297.1-22.93 294.97-21.05 294.37-17.3L294.37-17.3 309.87-17.3Q309.57-21.15 307.77-22.98 305.97-24.8 302.47-24.8L302.47-24.8ZM332.72 0L332.72-37.9 336.57-37.9 336.57 0 332.72 0ZM359.21-28.05Q364.21-28.05 366.59-25.43 368.96-22.8 368.96-16.6L368.96-16.6 368.96 0 365.26 0 365.26-16.6Q365.26-20.95 363.86-22.75 362.46-24.55 358.91-24.55L358.91-24.55Q354.71-24.55 350.66-20.9L350.66-20.9 350.66 0 346.96 0 346.96-27.45 350.66-27.45 350.66-24.35Q352.61-26.1 354.81-27.08 357.01-28.05 359.21-28.05L359.21-28.05ZM385.61-39.4Q383.81-39.4 383.16-38.68 382.51-37.95 382.51-35.9L382.51-35.9 382.51-27.45 388.01-27.45 388.01-23.95 382.51-23.95 382.51 0 378.81 0 378.81-23.95 375.41-23.95 375.41-27.45 378.81-27.45 378.81-36.65Q378.81-40.15 380.34-41.55 381.86-42.95 385.41-42.95L385.41-42.95Q386.61-42.95 388.01-42.65L388.01-42.65 388.01-39.2Q387.01-39.4 385.61-39.4L385.61-39.4ZM394.01-32.85L394.01-40.4 397.71-40.4 397.71-32.85 394.01-32.85ZM394.01 0L394.01-27.45 397.71-27.45 397.71 0 394.01 0ZM419.46-28.05Q424.46-28.05 426.83-25.43 429.21-22.8 429.21-16.6L429.21-16.6 429.21 0 425.51 0 425.51-16.6Q425.51-20.95 424.11-22.75 422.71-24.55 419.16-24.55L419.16-24.55Q414.96-24.55 410.91-20.9L410.91-20.9 410.91 0 407.21 0 407.21-27.45 410.91-27.45 410.91-24.35Q412.86-26.1 415.06-27.08 417.26-28.05 419.46-28.05L419.46-28.05ZM438.45-32.85L438.45-40.4 442.15-40.4 442.15-32.85 438.45-32.85ZM438.45 0L438.45-27.45 442.15-27.45 442.15 0 438.45 0ZM462.45-23.75L456.05-23.75 456.05-6.45Q456.05-4.4 456.7-3.65 457.35-2.9 459.15-2.9L459.15-2.9Q460.65-2.9 462.4-3.3L462.4-3.3 462.4 0.2Q460.55 0.65 458.75 0.65L458.75 0.65Q456.25 0.65 454.88 0 453.5-0.65 452.93-2.05 452.35-3.45 452.35-5.9L452.35-5.9 452.35-23.75 448.85-23.75 448.85-27.3 452.35-27.3 452.35-36.8 456.05-36.8 456.05-27.3 462.45-27.3 462.45-23.75ZM471.65-13.95L471.65-13.85Q471.65-8.8 473.95-5.7 476.25-2.6 481.3-2.6L481.3-2.6Q484.95-2.6 489.4-4.65L489.4-4.65 490.6-1.45Q486.2 0.85 481.1 0.85L481.1 0.85Q474.75 0.85 471.27-3.15 467.8-7.15 467.8-13.8L467.8-13.8Q467.8-18.4 469.4-21.65 471-24.9 473.77-26.58 476.55-28.25 480-28.25L480-28.25Q485.25-28.25 488.25-24.95 491.25-21.65 491.3-15.4L491.3-15.4 491.3-13.95 471.65-13.95ZM480-24.8Q476.75-24.8 474.62-22.93 472.5-21.05 471.9-17.3L471.9-17.3 487.4-17.3Q487.1-21.15 485.3-22.98 483.5-24.8 480-24.8L480-24.8Z" opacity="1" transform="matrix(1,0,0,1,0,0)" fill="#ffffff" class="undefined-text-1" data-fill-palette-color="secondary" id="text-1"></path></svg></g></svg></g></svg></g></svg></g><g><svg viewBox="0 0 70.58074690992349 70.58159830926866" height="70.58159830926866" width="70.58074690992349"><g><svg xmlns="http://www.w3.org/2000/svg" xmlnsXlink="http://www.w3.org/1999/xlink" version="1.1" x="0" y="0" viewBox="5.412824897783869 5.195582772773262 79.76931438294501 79.77027662186998" enable-background="new 0 0 90 90" xml:space="preserve" height="70.58159830926866" width="70.58074690992349" class="icon-icon-0" data-fill-palette-color="accent" id="icon-0"><path d="M54.624 83.27c-10.792 1.801-22.246-1.411-30.727-8.272-8.062-6.522-13.088-16.744-12.728-27.17 0.349-10.096 5.499-20.182 14.078-25.707 8.769-5.647 20.783-5.62 29.498 0.129 8.154 5.379 12.661 15.857 9.907 25.391-1.424 4.931-4.572 9.475-9.052 12.082-4.663 2.714-10.561 3.268-15.615 1.341-4.544-1.733-8.418-5.448-9.851-10.154-1.47-4.826-0.243-10.416 3.327-14.027 3.452-3.492 8.998-4.743 13.484-2.567 4.259 2.065 6.884 7.148 5.307 11.755-0.85 2.483-2.859 4.611-5.423 5.317-2.69 0.741-5.774-0.221-7.439-2.493-1.629-2.222-1.495-5.503 0.597-7.389 1.054-0.95 2.599-1.429 3.984-1.015 0.41 0.122 2.233 0.566 2.058 1.209 0.087-0.652-1.341-0.82-1.755-0.934-1.29-0.356-2.733 0.004-3.719 0.904-1.739 1.586-1.995 4.459-0.597 6.34 1.417 1.906 4.102 2.721 6.348 1.971 2.287-0.765 3.875-3.013 4.245-5.344 0.746-4.703-3.812-8.759-8.323-8.569-4.774 0.201-8.548 4.373-9.111 8.971-1.056 8.621 8.8 14.488 16.466 12.536 8.546-2.177 12.86-12.372 10.766-20.465-2.34-9.045-11.891-14.664-20.877-14.543-9.785 0.131-18.28 7.23-21.955 16.011-4.038 9.649-2.194 21.17 4.201 29.364 6.485 8.309 16.93 13.113 27.352 13.664 5.766 0.305 11.749-0.537 17.004-3.006 4.955-2.328 8.907-6.258 11.976-10.734 6.303-9.194 8.662-20.938 6.135-31.824C79.845 17.355 61.052 3.689 41.936 5.329 23.164 6.939 7.154 22.991 5.551 41.756c-0.918 10.74 2.777 21.76 9.928 29.817 7.078 7.976 17.424 12.875 28.071 13.353 6.118 0.275 12.303-0.876 17.903-3.359-2.472 0.844-4.993 1.695-7.622 1.838 0.506-0.028 0.982-0.246 1.492-0.242-1.79-0.014-3.465 0.776-5.242 0.87 1.034-0.055 2.103-0.271 3.095-0.566 0.337-0.101 1.458-0.578 1.755-0.242-0.207-0.235-1.358 0.182-1.613 0.243-0.926 0.221-1.953 0.452-2.902 0.51 0.426-0.026 4.536-0.711 4.53-0.755 0.008 0.065-4.022 0.607-4.613 0.769 0.714-0.196 1.505-0.245 2.235-0.367 0.292-0.048 2.164-0.591 2.374-0.402C54.91 83.194 54.661 83.264 54.624 83.27 43.928 85.055 57.114 82.88 54.624 83.27z" fill="#ffffff" data-fill-palette-color="accent"></path></svg></g></svg></g></svg></g><defs></defs></svg><rect width="395.52" height="57.258202723088296" fill="none" stroke="none" visibility="hidden"></rect></g></svg></g></svg>