<svg
      xmlns="http://www.w3.org/2000/svg"
      xmlnsSvgjs="http://svgjs.dev/svgjs"
      xmlnsXlink="http://www.w3.org/1999/xlink"
      width="2000"
      height="323"
      viewBox="0 0 2000 323"
    >
      <svg
        xmlns="http://www.w3.org/2000/svg"
        xmlnsXlink="http://www.w3.org/1999/xlink"
        width="2000"
        height="323"
        data-background-color="#35185a"
        transform="translate(-1.212 1.077)"
        viewBox="0 0 396 64"
      >
        <svg
          width="395.52"
          height="64.427"
          transform="translate(.24 -.213)"
          viewBox="0 0 395.52 64.427"
        >
          <svg width="395.52" height="64.427" viewBox="0 0 495.94 80.785">
            <rect
              width="3.149"
              height="58.747"
              x="89.027"
              y="11.019"
              fill="#fff"
              fillOpacity="1"
              stroke="transparent"
              strokeWidth="0"
              className="rect-o-0"
              data-fill-palette-color="primary"
              data-palette-color="#ffffff"
              opacity="1"
              rx="1%"
            ></rect>
            <svg
              width="395.52"
              height="58.455"
              transform="translate(100.42 11.165)"
              viewBox="0 0 395.52 58.455"
            >
              <svg width="395.52" height="58.455" viewBox="0 0 395.52 58.455">
                <svg width="395.52" height="34.92" viewBox="0 0 395.52 34.92">
                  <svg
                    width="395.52"
                    height="34.92"
                    data-palette-color="#ffffff"
                    viewBox="0.3 -33.5 383.98 34"
                  >
                    <g
                      fill="#fff"
                      className="undefined-text-0"
                      data-fill-palette-color="primary"
                    >
                      <path
                        d="M16.75-33.5q4.7 0 8.35 1.27 3.65 1.28 6.4 3.88l-4.45 6.55q-2.25-1.9-4.77-2.98-2.53-1.07-5.58-1.07-1.55 0-2.5.3t-1.37.82q-.43.53-.43 1.18 0 .8.98 1.3.97.5 2.72.9l5 1.15q5 1.15 7.45 3.38Q31-14.6 31-10.75 31-7 29.13-4.5 27.25-2 24-.75T16.65.5q-3.25 0-6.32-.65Q7.25-.8 4.7-2.02 2.15-3.25.3-4.95l4.4-6.75Q6.05-10.4 8-9.38q1.95 1.03 4.15 1.63 2.2.6 4.25.6 1.45 0 2.38-.28.92-.27 1.32-.77t.4-1.2q0-.85-.65-1.38-.65-.52-2.45-.92l-5.5-1.25q-2.7-.6-5-1.65-2.3-1.05-3.67-2.93-1.38-1.87-1.38-4.92 0-3.25 1.75-5.75t5.1-3.9q3.35-1.4 8.05-1.4zm18.65.5h16.4q4.25 0 7.22 1.32 2.98 1.33 4.55 3.85 1.58 2.53 1.58 6.18t-1.58 6.17q-1.57 2.53-4.55 3.85-2.97 1.33-7.22 1.33h-6.2V0H35.4v-33zm10.2 15.3h4.55q2.25 0 3.5-.98 1.25-.97 1.25-2.97t-1.25-2.98q-1.25-.97-3.5-.97H45.6v7.9zM76.8 0H66.59L77.7-33h12.25l11.14 33h-10.5L85.2-20l-1.4-5.4h-.1l-1.36 5.35L76.8 0zm16.4-6.85H74.55v-6.6H93.2v6.6zm31.84-5.4l9.1 2.45q-.9 3.65-3.02 5.95-2.13 2.3-5.15 3.32Q122.94.5 119.29.5q-5.1 0-8.82-2.03-3.73-2.02-5.73-5.82-2-3.8-2-9.15 0-5.35 2-9.15 2-3.8 5.73-5.83 3.72-2.02 8.77-2.02 3.6 0 6.63 1 3.02 1 5.12 3.1t2.85 5.45l-8.85 3.55q-.55-3.2-1.92-4.25-1.38-1.05-3.53-1.05-2 0-3.42 1.02-1.43 1.03-2.15 3.05-.73 2.03-.73 5.13 0 3.05.68 5.1.67 2.05 2.1 3.07 1.42 1.03 3.72 1.03 2.05 0 3.45-1.2 1.4-1.2 1.85-3.75zM165.19 0h-27.25v-33h26.6v7.65h-16.4V-20h13.1v7.1h-13.1v5.25h17.05V0zM184.44-33h10.2v19.85q0 6.45-3.8 10.05-3.8 3.6-10.9 3.6-5.2 0-8.37-1.85-3.18-1.85-4.33-5.1-1.15-3.25-.5-7.4l10.05-1.7q-.6 4.6.33 6.42.92 1.83 3.27 1.83 2.15 0 3.1-1.63.95-1.62.95-5.12V-33zm35.55 0h10.2v19.15q0 7.2-3.85 10.77Q222.49.5 214.84.5q-7.7 0-11.55-3.58-3.85-3.57-3.85-10.77V-33h10.25v19.7q0 3 1.3 4.5t3.85 1.5q2.55 0 3.85-1.5 1.3-1.5 1.3-4.5V-33zm37.8 0h8.95V0h-11.2l-9-16.35-2.1-4.45h-.1l.2 6.5V0h-8.9v-33h11.15l9 16.35 2.15 4.45h.05l-.2-6.5V-33zm35.34 0h11.05l-15.85 19.85-.5-1.95-7.55 9.75-2.2-7.55L293.13-33zm-20.3 0h10.2V0h-10.2v-33zm11.6 16.1l7.55-5.65 13 22.55h-11.55l-9-16.9zm23.7-16.1h10.2V0h-10.2v-33zm43.55 33h-27.25v-33h26.6v7.65h-16.4V-20h13.1v7.1h-13.1v5.25h17.05V0zm17.85-33.5q4.7 0 8.35 1.27 3.65 1.28 6.4 3.88l-4.45 6.55q-2.25-1.9-4.78-2.98-2.52-1.07-5.57-1.07-1.55 0-2.5.3t-1.38.82q-.42.53-.42 1.18 0 .8.97 1.3.98.5 2.73.9l5 1.15q5 1.15 7.45 3.38 2.45 2.22 2.45 6.07 0 3.75-1.88 6.25-1.87 2.5-5.12 3.75T369.43.5q-3.25 0-6.33-.65-3.07-.65-5.62-1.87-2.55-1.23-4.4-2.93l4.4-6.75q1.35 1.3 3.3 2.32 1.95 1.03 4.15 1.63 2.2.6 4.25.6 1.45 0 2.37-.28.93-.27 1.33-.77t.4-1.2q0-.85-.65-1.38-.65-.52-2.45-.92l-5.5-1.25q-2.7-.6-5-1.65-2.3-1.05-3.68-2.93-1.37-1.87-1.37-4.92 0-3.25 1.75-5.75t5.1-3.9q3.35-1.4 8.05-1.4z"
                        data-fill-palette-color="primary"
                      ></path>
                    </g>
                  </svg>
                </svg>
                <svg
                  width="232.21"
                  height="15.291"
                  transform="translate(0 43.164)"
                  viewBox="0 0 232.21 15.291"
                >
                  <svg
                    width="232.21"
                    height="15.291"
                    data-palette-color="#ffffff"
                    viewBox="3.05 -33.65 543.55 34.15"
                  >
                    <path
                      fill="#fff"
                      d="M13.4-13.45q-2.7.15-3.5.15H5.8V0H3.05v-32.75h7.35q6.1 0 8.95 2.1 2.85 2.1 2.85 7.4 0 3.55-1.42 5.7-1.43 2.15-4.58 3.5Q19.6-7.6 22.4 0h-3q-2.75-7.3-6-13.45zm-3.1-16.8H5.8v14.45h4q4.6 0 7.05-1.68 2.45-1.67 2.45-5.77t-2.17-5.55q-2.18-1.45-6.83-1.45zm18.05 18.4q0-5.75 2.37-8.98 2.38-3.22 6.93-3.22t6.77 3q2.23 3 2.23 8l-.15 2.5H31.2q.25 3.75 2 6.07 1.75 2.33 4.82 2.33 3.08 0 7.23-1.45L46-1.1Q41.95.45 38.4.45q-4.9 0-7.48-3.28-2.57-3.27-2.57-9.02zm9.5-9.65q-6.3 0-6.65 8.45h12.6q0-8.45-5.95-8.45zM60.9-2.15q1.85 0 4.02-1.18 2.17-1.17 3.17-2.17v-5.95q-3.29-.25-6.29-.25t-4.5 1.27Q55.8-9.15 55.8-7q0 4.85 5.1 4.85zm-.05 2.6q-3.65 0-5.75-1.88Q53-3.3 53-6.75t2.3-5.35q2.3-1.95 6.1-1.95t6.69.3q0-4.45-1.09-6.08-1.1-1.62-4.45-1.62t-7.9 1.6l-.75-2.5q4.65-1.7 8.4-1.7 4.95 0 6.7 2.2t1.75 7.7v10.5l.4 3.8-2.56.25-.5-3q-1.14 1-3.25 2.02Q62.75.45 60.85.45zM95.64-16h-2.7v-4.95q-2.45-.55-3.9-.55-3.6 0-5.37 2.55-1.78 2.55-1.78 7.05t1.8 7.12q1.8 2.63 5.35 2.63 2.25 0 6.25-1.4l.75 2.5Q92.09.45 89.09.45q-4.9 0-7.47-3.28-2.58-3.27-2.58-9.12t2.55-8.98q2.55-3.12 7.5-3.12 3.3 0 6.55 1.05v7zm10.9-3.4V0h-2.65v-33.2h2.65v11.25q4.7-2.1 7.75-2.1 7.15 0 7.15 8.2V0h-2.65v-15.85q0-2.55-1.1-4.08-1.1-1.52-3.8-1.52-2.7 0-7.35 2.05zm52.45 16.9v-18.75h-4.75v-2.5h4.75q0-9.9 7.35-9.9 2.4 0 5.3.85l-.6 2.55q-2.8-.8-4.6-.8-2.6 0-3.7 1.75t-1.1 5.55h9.05v2.5h-9.05V-2.5h9.15V0h-16.75v-2.5h4.95zm18.94-9.3q0-12.25 9.55-12.25t9.55 12.25q0 12.25-9.55 12.25t-9.55-12.25zm9.55-9.65q-6.7 0-6.7 9.65t6.7 9.65q6.7 0 6.7-9.65t-6.7-9.65zm21.75.2h-4.7v-2.5h7.35l.1 2.9q1.6-1 4.5-2t5.1-1.2v2.95q-2.05.15-5.07 1-3.03.85-4.53 1.75V-2.5h8V0h-15.45v-2.5h4.7v-18.75zM257.98-9.1v-11.8h-4.2v-2.5h4.2v-5.75l2.65-.5v6.25h9.5v2.5h-9.5v11.7q0 3.9.77 5.5.78 1.6 3.18 1.6 2.4 0 5.3-.95l.6 2.5Q267.58.5 265.08.5q-2.5 0-3.93-.65-1.42-.65-2.1-2.08-.67-1.42-.87-2.92-.2-1.5-.2-3.95zm23.54-10.3V0h-2.65v-33.2h2.65v11.25q4.7-2.1 7.75-2.1 7.15 0 7.15 8.2V0h-2.65v-15.85q0-2.55-1.1-4.08-1.1-1.52-3.8-1.52-2.7 0-7.35 2.05zm21.8 7.55q0-5.75 2.38-8.98 2.37-3.22 6.92-3.22t6.78 3q2.22 3 2.22 8l-.15 2.5h-15.3q.25 3.75 2 6.07 1.75 2.33 4.83 2.33 3.07 0 7.22-1.45l.75 2.5q-4.05 1.55-7.6 1.55-4.9 0-7.47-3.28-2.58-3.27-2.58-9.02zm9.5-9.65q-6.3 0-6.65 8.45h12.6q0-8.45-5.95-8.45zM369.47 0h-13.95v-2.5h5.65v-27.75h-5.65v-2.5h13.95v2.5h-5.55V-2.5h5.55V0zm9.29-23.75h2.55l.1 2q4.85-2.3 8.05-2.3 3.2 0 5.03 2.2 1.82 2.2 1.82 6V0h-2.65v-15.85q0-2.45-1.2-4.05-1.2-1.55-3.6-1.55-2.4 0-7.45 2.2V0h-2.65v-23.75zm30.2 21.25v-18.75h-4.75v-2.5h4.75q0-9.9 7.35-9.9 2.4 0 5.3.85l-.6 2.55q-2.8-.8-4.6-.8-2.6 0-3.7 1.75t-1.1 5.55h9.05v2.5h-9.05V-2.5h9.15V0h-16.75v-2.5h4.95zm27.95-18.75h-5.8v-2.5h8.45V-2.5h5.8V0h-14.65v-2.5h6.2v-18.75zm1.1-7.3q-.9 0-1.53-.63-.62-.62-.62-1.6 0-.97.62-1.55.63-.57 1.53-.57t1.47.55q.58.55.58 1.55t-.58 1.62q-.57.63-1.47.63zm15.75 4.8h2.55l.1 2q4.85-2.3 8.05-2.3 3.2 0 5.02 2.2 1.83 2.2 1.83 6V0h-2.65v-15.85q0-2.45-1.2-4.05-1.2-1.55-3.6-1.55-2.4 0-7.45 2.2V0h-2.65v-23.75zm33.14 2.5h-5.8v-2.5h8.45V-2.5h5.8V0H480.7v-2.5h6.2v-18.75zm1.1-7.3q-.9 0-1.52-.63-.63-.62-.63-1.6 0-.97.63-1.55.62-.57 1.52-.57t1.48.55q.57.55.57 1.55t-.57 1.62q-.58.63-1.48.63zM507.95-9.1v-11.8h-4.2v-2.5h4.2v-5.75l2.65-.5v6.25h9.5v2.5h-9.5v11.7q0 3.9.78 5.5.77 1.6 3.17 1.6t5.3-.95l.6 2.5Q517.55.5 515.05.5q-2.5 0-3.92-.65-1.43-.65-2.1-2.08-.68-1.42-.88-2.92-.2-1.5-.2-3.95zm20.35-2.75q0-5.75 2.37-8.98 2.38-3.22 6.93-3.22t6.77 3q2.23 3 2.23 8l-.15 2.5h-15.3q.25 3.75 2 6.07 1.75 2.33 4.82 2.33 3.08 0 7.23-1.45l.75 2.5Q541.9.45 538.35.45q-4.9 0-7.48-3.28-2.57-3.27-2.57-9.02zm9.5-9.65q-6.3 0-6.65 8.45h12.6q0-8.45-5.95-8.45z"
                      className="undefined-text-1"
                      data-fill-palette-color="secondary"
                      opacity="1"
                    ></path>
                  </svg>
                </svg>
              </svg>
            </svg>
            <svg width="80.784" height="80.785" viewBox="0 0 80.784 80.785">
              <svg
                xmlns="http://www.w3.org/2000/svg"
                width="80.784"
                height="80.785"
                x="0"
                y="0"
                className="icon-icon-0"
                data-fill-palette-color="accent"
                version="1.1"
                viewBox="5.413 5.196 79.769 79.77"
                xmlSpace="preserve"
              >
                <path
                  fill="#fff"
                  d="M54.624 83.27c-10.792 1.801-22.246-1.411-30.727-8.272-8.062-6.522-13.088-16.744-12.728-27.17.349-10.096 5.499-20.182 14.078-25.707 8.769-5.647 20.783-5.62 29.498.129 8.154 5.379 12.661 15.857 9.907 25.391-1.424 4.931-4.572 9.475-9.052 12.082-4.663 2.714-10.561 3.268-15.615 1.341-4.544-1.733-8.418-5.448-9.851-10.154-1.47-4.826-.243-10.416 3.327-14.027 3.452-3.492 8.998-4.743 13.484-2.567 4.259 2.065 6.884 7.148 5.307 11.755-.85 2.483-2.859 4.611-5.423 5.317-2.69.741-5.774-.221-7.439-2.493-1.629-2.222-1.495-5.503.597-7.389 1.054-.95 2.599-1.429 3.984-1.015.41.122 2.233.566 2.058 1.209.087-.652-1.341-.82-1.755-.934-1.29-.356-2.733.004-3.719.904-1.739 1.586-1.995 4.459-.597 6.34 1.417 1.906 4.102 2.721 6.348 1.971 2.287-.765 3.875-3.013 4.245-5.344.746-4.703-3.812-8.759-8.323-8.569-4.774.201-8.548 4.373-9.111 8.971-1.056 8.621 8.8 14.488 16.466 12.536 8.546-2.177 12.86-12.372 10.766-20.465-2.34-9.045-11.891-14.664-20.877-14.543-9.785.131-18.28 7.23-21.955 16.011-4.038 9.649-2.194 21.17 4.201 29.364 6.485 8.309 16.93 13.113 27.352 13.664 5.766.305 11.749-.537 17.004-3.006 4.955-2.328 8.907-6.258 11.976-10.734 6.303-9.194 8.662-20.938 6.135-31.824-4.34-18.687-23.133-32.353-42.249-30.713C23.164 6.939 7.154 22.991 5.551 41.756c-.918 10.74 2.777 21.76 9.928 29.817 7.078 7.976 17.424 12.875 28.071 13.353a39.939 39.939 0 0017.903-3.359c-2.472.844-4.993 1.695-7.622 1.838.506-.028.982-.246 1.492-.242-1.79-.014-3.465.776-5.242.87 1.034-.055 2.103-.271 3.095-.566.337-.101 1.458-.578 1.755-.242-.207-.235-1.358.182-1.613.243-.926.221-1.953.452-2.902.51.426-.026 4.536-.711 4.53-.755.008.065-4.022.607-4.613.769.714-.196 1.505-.245 2.235-.367.292-.048 2.164-.591 2.374-.402-.032-.029-.281.041-.318.047-10.696 1.785 2.49-.39 0 0z"
                  data-fill-palette-color="accent"
                ></path>
              </svg>
            </svg>
          </svg>
        </svg>
      </svg>
    </svg>