<svg xmlns="http://www.w3.org/2000/svg" version="1.1" xmlnsXlink="http://www.w3.org/1999/xlink" xmlnsSvgjs="http://svgjs.dev/svgjs" width="2000" height="323" viewBox="0 0 2000 323"><g transform="matrix(1,0,0,1,-1.2121207849303346,1.0774036321154767)"><svg viewBox="0 0 396 64" data-background-color="#35185a" preserveAspectRatio="xMidYMid meet" height="323" width="2000" xmlns="http://www.w3.org/2000/svg" xmlnsXlink="http://www.w3.org/1999/xlink"><g id="tight-bounds" transform="matrix(1,0,0,1,0.24000008458395428,-0.21347935744702795)"><svg viewBox="0 0 395.5199999999999 64.42695025720175" height="64.42695025720175" width="395.5199999999999"><g><svg viewBox="0 0 495.9402530597202 80.7845823584715" height="64.42695025720175" width="395.5199999999999"><g><rect width="3.149118827332537" height="58.74710945749916" x="89.02736766868995" y="11.01873645048617" fill="#ffffff" opacity="1" stroke-width="0" stroke="transparent" fill-opacity="1" class="rect-o-0" data-fill-palette-color="primary" rx="1%" id="o-0" data-palette-color="#ffffff"></rect></g><g transform="matrix(1,0,0,1,100.42025305972024,11.164873538688902)"><svg viewBox="0 0 395.52 58.45483528109369" height="58.45483528109369" width="395.52"><g><svg viewBox="0 0 395.52 58.45483528109369" height="58.45483528109369" width="395.52"><g><svg viewBox="0 0 395.52 34.91996883926252" height="34.91996883926252" width="395.52"><g transform="matrix(1,0,0,1,0,0)"><svg width="395.52" viewBox="0.30000001192092896 -33.5 383.9800109863281 34" height="34.91996883926252" data-palette-color="#ffffff"><g class="undefined-text-0" data-fill-palette-color="primary" id="text-0"><path d="M16.75-33.5L16.75-33.5Q21.45-33.5 25.1-32.23 28.75-30.95 31.5-28.35L31.5-28.35 27.05-21.8Q24.8-23.7 22.28-24.78 19.75-25.85 16.7-25.85L16.7-25.85Q15.15-25.85 14.2-25.55 13.25-25.25 12.83-24.73 12.4-24.2 12.4-23.55L12.4-23.55Q12.4-22.75 13.38-22.25 14.35-21.75 16.1-21.35L16.1-21.35 21.1-20.2Q26.1-19.05 28.55-16.82 31-14.6 31-10.75L31-10.75Q31-7 29.13-4.5 27.25-2 24-0.75 20.75 0.5 16.65 0.5L16.65 0.5Q13.4 0.5 10.33-0.15 7.25-0.8 4.7-2.02 2.15-3.25 0.3-4.95L0.3-4.95 4.7-11.7Q6.05-10.4 8-9.38 9.95-8.35 12.15-7.75 14.35-7.15 16.4-7.15L16.4-7.15Q17.85-7.15 18.78-7.43 19.7-7.7 20.1-8.2 20.5-8.7 20.5-9.4L20.5-9.4Q20.5-10.25 19.85-10.78 19.2-11.3 17.4-11.7L17.4-11.7 11.9-12.95Q9.2-13.55 6.9-14.6 4.6-15.65 3.23-17.53 1.85-19.4 1.85-22.45L1.85-22.45Q1.85-25.7 3.6-28.2 5.35-30.7 8.7-32.1 12.05-33.5 16.75-33.5ZM35.4-33L51.8-33Q56.05-33 59.02-31.68 62-30.35 63.57-27.83 65.15-25.3 65.15-21.65L65.15-21.65Q65.15-18 63.57-15.48 62-12.95 59.02-11.63 56.05-10.3 51.8-10.3L51.8-10.3 45.6-10.3 45.6 0 35.4 0 35.4-33ZM45.6-17.7L50.15-17.7Q52.4-17.7 53.65-18.68 54.9-19.65 54.9-21.65L54.9-21.65Q54.9-23.65 53.65-24.63 52.4-25.6 50.15-25.6L50.15-25.6 45.6-25.6 45.6-17.7ZM76.8 0L66.59 0 77.7-33 89.95-33 101.09 0 90.59 0 85.2-20 83.8-25.4 83.7-25.4 82.34-20.05 76.8 0ZM93.2-6.85L74.55-6.85 74.55-13.45 93.2-13.45 93.2-6.85ZM125.04-12.25L134.14-9.8Q133.24-6.15 131.12-3.85 128.99-1.55 125.97-0.53 122.94 0.5 119.29 0.5L119.29 0.5Q114.19 0.5 110.47-1.53 106.74-3.55 104.74-7.35 102.74-11.15 102.74-16.5L102.74-16.5Q102.74-21.85 104.74-25.65 106.74-29.45 110.47-31.48 114.19-33.5 119.24-33.5L119.24-33.5Q122.84-33.5 125.87-32.5 128.89-31.5 130.99-29.4 133.09-27.3 133.84-23.95L133.84-23.95 124.99-20.4Q124.44-23.6 123.07-24.65 121.69-25.7 119.54-25.7L119.54-25.7Q117.54-25.7 116.12-24.68 114.69-23.65 113.97-21.63 113.24-19.6 113.24-16.5L113.24-16.5Q113.24-13.45 113.92-11.4 114.59-9.35 116.02-8.33 117.44-7.3 119.74-7.3L119.74-7.3Q121.79-7.3 123.19-8.5 124.59-9.7 125.04-12.25L125.04-12.25ZM165.19 0L137.94 0 137.94-33 164.54-33 164.54-25.35 148.14-25.35 148.14-20 161.24-20 161.24-12.9 148.14-12.9 148.14-7.65 165.19-7.65 165.19 0Z" fill="#ffffff" data-fill-palette-color="primary"></path><path d="M184.44-33L194.64-33 194.64-13.15Q194.64-6.7 190.84-3.1 187.04 0.5 179.94 0.5L179.94 0.5Q174.74 0.5 171.57-1.35 168.39-3.2 167.24-6.45 166.09-9.7 166.74-13.85L166.74-13.85 176.79-15.55Q176.19-10.95 177.12-9.13 178.04-7.3 180.39-7.3L180.39-7.3Q182.54-7.3 183.49-8.93 184.44-10.55 184.44-14.05L184.44-14.05 184.44-33ZM219.99-33L230.19-33 230.19-13.85Q230.19-6.65 226.34-3.08 222.49 0.5 214.84 0.5L214.84 0.5Q207.14 0.5 203.29-3.08 199.44-6.65 199.44-13.85L199.44-13.85 199.44-33 209.69-33 209.69-13.3Q209.69-10.3 210.99-8.8 212.29-7.3 214.84-7.3L214.84-7.3Q217.39-7.3 218.69-8.8 219.99-10.3 219.99-13.3L219.99-13.3 219.99-33ZM257.79-33L266.74-33 266.74 0 255.54 0 246.54-16.35 244.44-20.8 244.34-20.8 244.54-14.3 244.54 0 235.64 0 235.64-33 246.79-33 255.79-16.65 257.94-12.2 257.99-12.2 257.79-18.7 257.79-33ZM293.13-33L304.18-33 288.33-13.15 287.83-15.1 280.28-5.35 278.08-12.9 293.13-33ZM272.83-33L283.03-33 283.03 0 272.83 0 272.83-33ZM284.43-16.9L291.98-22.55 304.98 0 293.43 0 284.43-16.9ZM308.13-33L318.33-33 318.33 0 308.13 0 308.13-33ZM351.68 0L324.43 0 324.43-33 351.03-33 351.03-25.35 334.63-25.35 334.63-20 347.73-20 347.73-12.9 334.63-12.9 334.63-7.65 351.68-7.65 351.68 0ZM369.53-33.5L369.53-33.5Q374.23-33.5 377.88-32.23 381.53-30.95 384.28-28.35L384.28-28.35 379.83-21.8Q377.58-23.7 375.05-24.78 372.53-25.85 369.48-25.85L369.48-25.85Q367.93-25.85 366.98-25.55 366.03-25.25 365.6-24.73 365.18-24.2 365.18-23.55L365.18-23.55Q365.18-22.75 366.15-22.25 367.13-21.75 368.88-21.35L368.88-21.35 373.88-20.2Q378.88-19.05 381.33-16.82 383.78-14.6 383.78-10.75L383.78-10.75Q383.78-7 381.9-4.5 380.03-2 376.78-0.75 373.53 0.5 369.43 0.5L369.43 0.5Q366.18 0.5 363.1-0.15 360.03-0.8 357.48-2.02 354.93-3.25 353.08-4.95L353.08-4.95 357.48-11.7Q358.83-10.4 360.78-9.38 362.73-8.35 364.93-7.75 367.13-7.15 369.18-7.15L369.18-7.15Q370.63-7.15 371.55-7.43 372.48-7.7 372.88-8.2 373.28-8.7 373.28-9.4L373.28-9.4Q373.28-10.25 372.63-10.78 371.98-11.3 370.18-11.7L370.18-11.7 364.68-12.95Q361.98-13.55 359.68-14.6 357.38-15.65 356-17.53 354.63-19.4 354.63-22.45L354.63-22.45Q354.63-25.7 356.38-28.2 358.13-30.7 361.48-32.1 364.83-33.5 369.53-33.5Z" fill="#ffffff" data-fill-palette-color="primary"></path></g></svg></g></svg></g><g transform="matrix(1,0,0,1,0,43.16373540296026)"><svg viewBox="0 0 232.209792 15.291099878133434" height="15.291099878133434" width="232.209792"><g transform="matrix(1,0,0,1,0,0)"><svg width="232.209792" viewBox="3.049999952316284 -33.650001525878906 543.5499877929688 34.150001525878906" height="15.291099878133434" data-palette-color="#ffffff"><path d="M13.4-13.45L13.4-13.45Q10.7-13.3 9.9-13.3L9.9-13.3 5.8-13.3 5.8 0 3.05 0 3.05-32.75 10.4-32.75Q16.5-32.75 19.35-30.65 22.2-28.55 22.2-23.25L22.2-23.25Q22.2-19.7 20.78-17.55 19.35-15.4 16.2-14.05L16.2-14.05Q19.6-7.6 22.4 0L22.4 0 19.4 0Q16.65-7.3 13.4-13.45ZM10.3-30.25L10.3-30.25 5.8-30.25 5.8-15.8 9.8-15.8Q14.4-15.8 16.85-17.48 19.3-19.15 19.3-23.25 19.3-27.35 17.13-28.8 14.95-30.25 10.3-30.25ZM28.35-11.85Q28.35-17.6 30.72-20.83 33.1-24.05 37.65-24.05 42.2-24.05 44.42-21.05 46.65-18.05 46.65-13.05L46.65-13.05 46.5-10.55 31.2-10.55Q31.45-6.8 33.2-4.48 34.95-2.15 38.02-2.15 41.1-2.15 45.25-3.6L45.25-3.6 46-1.1Q41.95 0.45 38.4 0.45L38.4 0.45Q33.5 0.45 30.92-2.83 28.35-6.1 28.35-11.85ZM37.85-21.5L37.85-21.5Q31.55-21.5 31.2-13.05L31.2-13.05 43.8-13.05Q43.8-21.5 37.85-21.5ZM60.9-2.15L60.9-2.15Q62.75-2.15 64.92-3.33 67.09-4.5 68.09-5.5L68.09-5.5 68.09-11.45Q64.8-11.7 61.8-11.7 58.8-11.7 57.3-10.43 55.8-9.15 55.8-7L55.8-7Q55.8-2.15 60.9-2.15ZM60.85 0.45L60.85 0.45Q57.2 0.45 55.1-1.43 53-3.3 53-6.75 53-10.2 55.3-12.1L55.3-12.1Q57.6-14.05 61.4-14.05 65.2-14.05 68.09-13.75L68.09-13.75Q68.09-18.2 67-19.83 65.9-21.45 62.55-21.45 59.2-21.45 54.65-19.85L54.65-19.85 53.9-22.35Q58.55-24.05 62.3-24.05L62.3-24.05Q67.25-24.05 69-21.85 70.75-19.65 70.75-14.15L70.75-14.15 70.75-3.65 71.15 0.15 68.59 0.4 68.09-2.6Q66.95-1.6 64.84-0.58 62.75 0.45 60.85 0.45ZM95.64-16L92.94-16 92.94-20.95Q90.49-21.5 89.04-21.5L89.04-21.5Q85.44-21.5 83.67-18.95 81.89-16.4 81.89-11.9 81.89-7.4 83.69-4.78 85.49-2.15 89.04-2.15L89.04-2.15Q91.29-2.15 95.29-3.55L95.29-3.55 96.04-1.05Q92.09 0.45 89.09 0.45L89.09 0.45Q84.19 0.45 81.62-2.83 79.04-6.1 79.04-11.95 79.04-17.8 81.59-20.93 84.14-24.05 89.09-24.05L89.09-24.05Q92.39-24.05 95.64-23L95.64-23 95.64-16ZM106.54-19.4L106.54-19.4 106.54 0 103.89 0 103.89-33.2 106.54-33.2 106.54-21.95Q111.24-24.05 114.29-24.05L114.29-24.05Q121.44-24.05 121.44-15.85L121.44-15.85 121.44 0 118.79 0 118.79-15.85Q118.79-18.4 117.69-19.93 116.59-21.45 113.89-21.45 111.19-21.45 106.54-19.4ZM158.99-2.5L158.99-21.25 154.24-21.25 154.24-23.75 158.99-23.75Q158.99-33.65 166.34-33.65L166.34-33.65Q168.74-33.65 171.64-32.8L171.64-32.8 171.04-30.25Q168.24-31.05 166.44-31.05L166.44-31.05Q163.84-31.05 162.74-29.3 161.64-27.55 161.64-23.75L161.64-23.75 170.69-23.75 170.69-21.25 161.64-21.25 161.64-2.5 170.79-2.5 170.79 0 154.04 0 154.04-2.5 158.99-2.5ZM177.93-11.8Q177.93-24.05 187.48-24.05 197.03-24.05 197.03-11.8 197.03 0.45 187.48 0.45 177.93 0.45 177.93-11.8ZM187.48-21.45Q180.78-21.45 180.78-11.8 180.78-2.15 187.48-2.15 194.18-2.15 194.18-11.8 194.18-21.45 187.48-21.45ZM209.23-21.25L204.53-21.25 204.53-23.75 211.88-23.75 211.98-20.85Q213.58-21.85 216.48-22.85 219.38-23.85 221.58-24.05L221.58-24.05 221.58-21.1Q219.53-20.95 216.51-20.1 213.48-19.25 211.98-18.35L211.98-18.35 211.98-2.5 219.98-2.5 219.98 0 204.53 0 204.53-2.5 209.23-2.5 209.23-21.25ZM257.98-9.1L257.98-20.9 253.78-20.9 253.78-23.4 257.98-23.4 257.98-29.15 260.63-29.65 260.63-23.4 270.13-23.4 270.13-20.9 260.63-20.9 260.63-9.2Q260.63-5.3 261.4-3.7 262.18-2.1 264.58-2.1 266.98-2.1 269.88-3.05L269.88-3.05 270.48-0.55Q267.58 0.5 265.08 0.5 262.58 0.5 261.15-0.15 259.73-0.8 259.05-2.23 258.38-3.65 258.18-5.15 257.98-6.65 257.98-9.1L257.98-9.1ZM281.52-19.4L281.52-19.4 281.52 0 278.87 0 278.87-33.2 281.52-33.2 281.52-21.95Q286.22-24.05 289.27-24.05L289.27-24.05Q296.42-24.05 296.42-15.85L296.42-15.85 296.42 0 293.77 0 293.77-15.85Q293.77-18.4 292.67-19.93 291.57-21.45 288.87-21.45 286.17-21.45 281.52-19.4ZM303.32-11.85Q303.32-17.6 305.7-20.83 308.07-24.05 312.62-24.05 317.17-24.05 319.4-21.05 321.62-18.05 321.62-13.05L321.62-13.05 321.47-10.55 306.17-10.55Q306.42-6.8 308.17-4.48 309.92-2.15 313-2.15 316.07-2.15 320.22-3.6L320.22-3.6 320.97-1.1Q316.92 0.45 313.37 0.45L313.37 0.45Q308.47 0.45 305.9-2.83 303.32-6.1 303.32-11.85ZM312.82-21.5L312.82-21.5Q306.52-21.5 306.17-13.05L306.17-13.05 318.77-13.05Q318.77-21.5 312.82-21.5ZM369.47 0L355.52 0 355.52-2.5 361.17-2.5 361.17-30.25 355.52-30.25 355.52-32.75 369.47-32.75 369.47-30.25 363.92-30.25 363.92-2.5 369.47-2.5 369.47 0ZM378.76-23.75L381.31-23.75 381.41-21.75Q386.26-24.05 389.46-24.05 392.66-24.05 394.49-21.85 396.31-19.65 396.31-15.85L396.31-15.85 396.31 0 393.66 0 393.66-15.85Q393.66-18.3 392.46-19.9L392.46-19.9Q391.26-21.45 388.86-21.45 386.46-21.45 381.41-19.25L381.41-19.25 381.41 0 378.76 0 378.76-23.75ZM408.96-2.5L408.96-21.25 404.21-21.25 404.21-23.75 408.96-23.75Q408.96-33.65 416.31-33.65L416.31-33.65Q418.71-33.65 421.61-32.8L421.61-32.8 421.01-30.25Q418.21-31.05 416.41-31.05L416.41-31.05Q413.81-31.05 412.71-29.3 411.61-27.55 411.61-23.75L411.61-23.75 420.66-23.75 420.66-21.25 411.61-21.25 411.61-2.5 420.76-2.5 420.76 0 404.01 0 404.01-2.5 408.96-2.5ZM436.91-21.25L431.11-21.25 431.11-23.75 439.56-23.75 439.56-2.5 445.36-2.5 445.36 0 430.71 0 430.71-2.5 436.91-2.5 436.91-21.25ZM438.01-28.55Q437.11-28.55 436.48-29.18 435.86-29.8 435.86-30.78 435.86-31.75 436.48-32.33 437.11-32.9 438.01-32.9 438.91-32.9 439.48-32.35 440.06-31.8 440.06-30.8 440.06-29.8 439.48-29.18 438.91-28.55 438.01-28.55ZM453.76-23.75L456.31-23.75 456.41-21.75Q461.26-24.05 464.46-24.05 467.66-24.05 469.48-21.85 471.31-19.65 471.31-15.85L471.31-15.85 471.31 0 468.66 0 468.66-15.85Q468.66-18.3 467.46-19.9L467.46-19.9Q466.26-21.45 463.86-21.45 461.46-21.45 456.41-19.25L456.41-19.25 456.41 0 453.76 0 453.76-23.75ZM486.9-21.25L481.1-21.25 481.1-23.75 489.55-23.75 489.55-2.5 495.35-2.5 495.35 0 480.7 0 480.7-2.5 486.9-2.5 486.9-21.25ZM488-28.55Q487.1-28.55 486.48-29.18 485.85-29.8 485.85-30.78 485.85-31.75 486.48-32.33 487.1-32.9 488-32.9 488.9-32.9 489.48-32.35 490.05-31.8 490.05-30.8 490.05-29.8 489.48-29.18 488.9-28.55 488-28.55ZM507.95-9.1L507.95-20.9 503.75-20.9 503.75-23.4 507.95-23.4 507.95-29.15 510.6-29.65 510.6-23.4 520.1-23.4 520.1-20.9 510.6-20.9 510.6-9.2Q510.6-5.3 511.38-3.7 512.15-2.1 514.55-2.1 516.95-2.1 519.85-3.05L519.85-3.05 520.45-0.55Q517.55 0.5 515.05 0.5 512.55 0.5 511.13-0.15 509.7-0.8 509.03-2.23 508.35-3.65 508.15-5.15 507.95-6.65 507.95-9.1L507.95-9.1ZM528.3-11.85Q528.3-17.6 530.67-20.83 533.05-24.05 537.6-24.05 542.15-24.05 544.37-21.05 546.6-18.05 546.6-13.05L546.6-13.05 546.45-10.55 531.15-10.55Q531.4-6.8 533.15-4.48 534.9-2.15 537.97-2.15 541.05-2.15 545.2-3.6L545.2-3.6 545.95-1.1Q541.9 0.45 538.35 0.45L538.35 0.45Q533.45 0.45 530.87-2.83 528.3-6.1 528.3-11.85ZM537.8-21.5L537.8-21.5Q531.5-21.5 531.15-13.05L531.15-13.05 543.75-13.05Q543.75-21.5 537.8-21.5Z" opacity="1" transform="matrix(1,0,0,1,0,0)" fill="#ffffff" class="undefined-text-1" data-fill-palette-color="secondary" id="text-1"></path></svg></g></svg></g></svg></g></svg></g><g><svg viewBox="0 0 80.7836011049922 80.7845823584715" height="80.7845823584715" width="80.7836011049922"><g><svg xmlns="http://www.w3.org/2000/svg" xmlnsXlink="http://www.w3.org/1999/xlink" version="1.1" x="0" y="0" viewBox="5.412825107574463 5.195577621459961 79.76930236816406 79.77027130126953" enable-background="new 0 0 90 90" xml:space="preserve" height="80.7845823584715" width="80.7836011049922" class="icon-icon-0" data-fill-palette-color="accent" id="icon-0"><path d="M54.624 83.27c-10.792 1.801-22.246-1.411-30.727-8.272-8.062-6.522-13.088-16.744-12.728-27.17 0.349-10.096 5.499-20.182 14.078-25.707 8.769-5.647 20.783-5.62 29.498 0.129 8.154 5.379 12.661 15.857 9.907 25.391-1.424 4.931-4.572 9.475-9.052 12.082-4.663 2.714-10.561 3.268-15.615 1.341-4.544-1.733-8.418-5.448-9.851-10.154-1.47-4.826-0.243-10.416 3.327-14.027 3.452-3.492 8.998-4.743 13.484-2.567 4.259 2.065 6.884 7.148 5.307 11.755-0.85 2.483-2.859 4.611-5.423 5.317-2.69 0.741-5.774-0.221-7.439-2.493-1.629-2.222-1.495-5.503 0.597-7.389 1.054-0.95 2.599-1.429 3.984-1.015 0.41 0.122 2.233 0.566 2.058 1.209 0.087-0.652-1.341-0.82-1.755-0.934-1.29-0.356-2.733 0.004-3.719 0.904-1.739 1.586-1.995 4.459-0.597 6.34 1.417 1.906 4.102 2.721 6.348 1.971 2.287-0.765 3.875-3.013 4.245-5.344 0.746-4.703-3.812-8.759-8.323-8.569-4.774 0.201-8.548 4.373-9.111 8.971-1.056 8.621 8.8 14.488 16.466 12.536 8.546-2.177 12.86-12.372 10.766-20.465-2.34-9.045-11.891-14.664-20.877-14.543-9.785 0.131-18.28 7.23-21.955 16.011-4.038 9.649-2.194 21.17 4.201 29.364 6.485 8.309 16.93 13.113 27.352 13.664 5.766 0.305 11.749-0.537 17.004-3.006 4.955-2.328 8.907-6.258 11.976-10.734 6.303-9.194 8.662-20.938 6.135-31.824C79.845 17.355 61.052 3.689 41.936 5.329 23.164 6.939 7.154 22.991 5.551 41.756c-0.918 10.74 2.777 21.76 9.928 29.817 7.078 7.976 17.424 12.875 28.071 13.353 6.118 0.275 12.303-0.876 17.903-3.359-2.472 0.844-4.993 1.695-7.622 1.838 0.506-0.028 0.982-0.246 1.492-0.242-1.79-0.014-3.465 0.776-5.242 0.87 1.034-0.055 2.103-0.271 3.095-0.566 0.337-0.101 1.458-0.578 1.755-0.242-0.207-0.235-1.358 0.182-1.613 0.243-0.926 0.221-1.953 0.452-2.902 0.51 0.426-0.026 4.536-0.711 4.53-0.755 0.008 0.065-4.022 0.607-4.613 0.769 0.714-0.196 1.505-0.245 2.235-0.367 0.292-0.048 2.164-0.591 2.374-0.402C54.91 83.194 54.661 83.264 54.624 83.27 43.928 85.055 57.114 82.88 54.624 83.27z" fill="#ffffff" data-fill-palette-color="accent"></path></svg></g></svg></g></svg></g><defs></defs></svg><rect width="395.5199999999999" height="64.42695025720175" fill="none" stroke="none" visibility="hidden"></rect></g></svg></g></svg>